<svg width="536.4000122070312px" height="149.68001708984374px" xmlns="http://www.w3.org/2000/svg" viewBox="-18.20000610351559 0.15999145507812784 536.4000122070312 149.68001708984374" style="background: rgba(0, 0, 0, 0) none repeat scroll 0% 0%;" preserveAspectRatio="xMidYMid"><defs><filter id="editing-extrusion" x="-100%" y="-100%" width="300%" height="300%"><feFlood result="color1" flood-color="#ffe4f0"></feFlood><feConvolveMatrix order="1,1" divisor="1" kernelMatrix="1" in="SourceAlpha" result="extrude"></feConvolveMatrix><feComposite in="color1" in2="extrude" result="comp-extrude" operator="in"></feComposite><feOffset dx="0.5" dy="0.5" in="comp-extrude" result="offset-extrude"></feOffset><feMerge><feMergeNode in="offset-extrude"></feMergeNode><feMergeNode in="SourceGraphic"></feMergeNode></feMerge></filter></defs><g filter="url(#editing-extrusion)"><g transform="translate(60.52998757362366, 103.44999885559082)"><path d="M7.74-48.19L7.74-48.19L7.74-48.19Q9.22-48.19 10.66-48.42L10.66-48.42L10.66-48.42Q12.10-48.64 13.57-48.64L13.57-48.64L13.57-48.64Q15.17-48.64 16.74-48.48L16.74-48.48L16.74-48.48Q18.30-48.32 19.90-48.19L19.90-48.19L19.90-48.19Q18.05-48.51 16.19-48.61L16.19-48.61L16.19-48.61Q14.34-48.70 12.48-48.70L12.48-48.70L12.48-48.70Q11.33-48.70 10.21-48.67L10.21-48.67L10.21-48.67Q9.09-48.64 7.94-48.58L7.94-48.58L7.94-48.58Q8.45-49.41 9.41-49.73L9.41-49.73L9.41-49.73Q10.37-50.05 11.26-50.05L11.26-50.05L11.58-50.05L13.18-49.98L13.44-49.34L13.44-49.34Q13.95-49.47 14.40-49.47L14.40-49.47L15.42-49.47L15.42-49.47Q16.96-49.47 18.50-49.25L18.50-49.25L18.50-49.25Q20.03-49.02 21.70-49.02L21.70-49.02L22.46-49.02L22.46-49.02Q22.85-49.02 23.30-49.15L23.30-49.15L23.42-49.47L23.42-49.47Q25.92-49.34 28.48-49.34L28.48-49.34L28.48-49.34Q29.44-49.34 30.18-48.96L30.18-48.96L30.18-48.96Q30.91-48.58 31.81-48.58L31.81-48.58L31.81-47.10L31.81-47.10Q31.81-46.72 31.68-46.43L31.68-46.43L31.68-46.43Q31.55-46.14 31.23-46.14L31.23-46.14L30.85-46.21L30.85-45.63L30.85-45.63Q31.49-45.18 31.94-44.48L31.94-44.48L31.94-44.48Q32.38-43.78 32.38-43.01L32.38-43.01L32.38-43.01Q32.38-42.43 32.10-42.11L32.10-42.11L32.10-42.11Q31.81-41.79 31.36-41.60L31.36-41.60L31.36-41.60Q30.91-41.41 30.40-41.38L30.40-41.38L30.40-41.38Q29.89-41.34 29.44-41.34L29.44-41.34L29.44-41.34Q25.41-41.34 21.12-41.76L21.12-41.76L21.12-41.76Q16.83-42.18 12.61-42.88L12.61-42.88L11.39-42.56L11.39-42.56Q11.46-42.30 11.55-41.38L11.55-41.38L11.55-41.38Q11.65-40.45 11.78-39.14L11.78-39.14L11.78-39.14Q11.90-37.82 12.06-36.35L12.06-36.35L12.06-36.35Q12.22-34.88 12.35-33.63L12.35-33.63L12.35-33.63Q12.48-32.38 12.54-31.52L12.54-31.52L12.54-31.52Q12.61-30.66 12.61-30.59L12.61-30.59L15.17-30.59L15.17-29.95L15.17-29.95Q16.32-30.27 17.15-30.27L17.15-30.27L17.15-30.27Q18.18-30.27 19.14-30.08L19.14-30.08L19.14-30.08Q20.10-29.89 21.25-29.89L21.25-29.89L21.25-29.89Q21.76-29.89 22.24-29.95L22.24-29.95L22.24-29.95Q22.72-30.02 23.23-30.14L23.23-30.14L23.23-30.59L23.23-30.59Q22.27-30.53 21.31-30.50L21.31-30.50L21.31-30.50Q20.35-30.46 19.39-30.46L19.39-30.46L19.39-30.46Q18.75-30.46 18.14-30.50L18.14-30.50L18.14-30.50Q17.54-30.53 16.96-30.59L16.96-30.59L16.96-30.59Q19.65-30.59 22.24-30.78L22.24-30.78L22.24-30.78Q24.83-30.98 27.52-30.98L27.52-30.98L27.52-30.98Q28.61-30.98 29.50-30.40L29.50-30.40L29.50-30.40Q30.40-29.82 30.40-28.61L30.40-28.61L30.40-28.61Q30.40-28.29 30.27-28.03L30.27-28.03L30.27-28.03Q30.14-27.78 29.82-27.78L29.82-27.78L29.44-27.84L29.44-27.26L29.44-27.26Q30.08-26.75 30.46-26.02L30.46-26.02L30.46-26.02Q30.85-25.28 30.85-24.51L30.85-24.51L30.85-24.51Q30.85-23.87 30.24-23.49L30.24-23.49L30.24-23.49Q29.63-23.10 28.74-22.88L28.74-22.88L28.74-22.88Q27.84-22.66 26.72-22.59L26.72-22.59L26.72-22.59Q25.60-22.53 24.64-22.53L24.64-22.53L24.64-22.53Q21.82-22.53 19.42-23.01L19.42-23.01L19.42-23.01Q17.02-23.49 14.59-23.49L14.59-23.49L14.59-23.49Q14.21-23.49 13.57-23.36L13.57-23.36L13.57-23.36Q13.76-21.25 13.76-19.07L13.76-19.07L13.76-19.07Q13.76-16.13 13.57-13.15L13.57-13.15L13.57-13.15Q13.38-10.18 13.38-7.23L13.38-7.23L13.38-7.23Q13.38-6.78 13.44-6.08L13.44-6.08L13.44-6.08Q13.50-5.38 13.50-4.67L13.50-4.67L13.50-4.67Q13.50-3.78 13.28-3.07L13.28-3.07L13.28-3.07Q13.06-2.37 12.22-2.37L12.22-2.37L12.22-19.39L12.22-19.39Q12.03-17.47 12-15.58L12-15.58L12-15.58Q11.97-13.70 11.97-11.84L11.97-11.84L11.97-5.18L11.97-5.18Q11.97-3.84 11.84-2.37L11.84-2.37L10.88-2.56L10.88-1.41L10.88-1.41Q10.62-0.96 10.21-0.61L10.21-0.61L10.21-0.61Q9.79-0.26 9.28-0.26L9.28-0.26L9.28-0.26Q8.64-0.26 8.26-0.54L8.26-0.54L8.26-0.54Q7.87-0.83 7.65-1.28L7.65-1.28L7.65-1.28Q7.42-1.73 7.36-2.27L7.36-2.27L7.36-2.27Q7.30-2.82 7.30-3.26L7.30-3.26L7.30-3.26Q7.30-6.02 7.55-8.83L7.55-8.83L7.55-8.83Q7.81-11.65 7.81-14.46L7.81-14.46L7.81-14.46Q7.81-16.19 7.62-17.92L7.62-17.92L7.62-17.92Q7.42-19.65 7.17-21.38L7.17-21.38L7.17-21.38Q7.23-18.69 7.33-16.10L7.33-16.10L7.33-16.10Q7.42-13.50 7.42-10.88L7.42-10.88L7.42-10.88Q7.42-8.64 7.30-6.50L7.30-6.50L7.30-6.50Q7.17-4.35 6.78-2.18L6.78-2.18L6.78-2.18Q5.95-3.20 5.95-4.35L5.95-4.35L5.95-4.35Q5.95-5.82 6.05-7.36L6.05-7.36L6.05-7.36Q6.14-8.90 6.14-10.37L6.14-10.37L6.98-10.37L6.98-10.37Q6.59-12.48 6.53-14.59L6.53-14.59L6.40-18.88L6.40-18.88Q6.34-21.06 6.21-23.20L6.21-23.20L6.21-23.20Q6.08-25.34 5.57-27.46L5.57-27.46L5.18-27.26L5.18-27.26Q6.08-19.71 6.14-12.03L6.14-12.03L6.14-12.03Q5.95-18.18 5.25-24.19L5.25-24.19L5.25-24.19Q4.54-30.59 4.03-37.06L4.03-37.06L4.03-37.06Q3.90-37.38 3.87-37.79L3.87-37.79L3.87-37.79Q3.84-38.21 3.84-38.59L3.84-38.59L3.84-38.59Q3.84-39.81 3.94-40.93L3.94-40.93L3.94-40.93Q4.03-42.05 4.03-43.33L4.03-43.33L5.63-43.46L5.63-43.46Q6.34-43.46 6.43-42.72L6.43-42.72L6.43-42.72Q6.53-41.98 6.53-41.54L6.53-41.54L7.36-41.54L7.36-41.54Q7.49-42.37 7.97-43.36L7.97-43.36L7.97-43.36Q8.45-44.35 9.34-44.67L9.34-44.67L9.28-44.86L8.70-44.67L8.70-44.67Q8.06-44.99 7.78-45.60L7.78-45.60L7.78-45.60Q7.49-46.21 7.49-46.91L7.49-46.91L7.49-46.91Q7.49-47.23 7.62-47.55L7.62-47.55L7.62-47.55Q7.74-47.87 7.74-48.19ZM12.86-29.38L12.86-29.12L12.86-29.12Q13.95-29.12 15.01-29.02L15.01-29.02L15.01-29.02Q16.06-28.93 17.15-28.93L17.15-28.93L17.73-28.93L20.29-28.99L20.29-28.99Q18.43-29.25 16.58-29.18L16.58-29.18L16.58-29.18Q14.72-29.12 12.86-29.38L12.86-29.38ZM19.01-49.79L19.01-49.79L19.01-49.79Q16.90-50.05 14.78-50.18L14.78-50.18L14.78-50.18Q18.11-50.05 21.50-49.66L21.50-49.66L21.50-49.66Q22.34-49.60 23.10-49.54L23.10-49.54L23.10-49.54Q20.99-49.54 19.01-49.79ZM10.82-44.03L11.01-43.78L11.01-43.78Q11.39-43.90 12.38-43.97L12.38-43.97L12.38-43.97Q13.38-44.03 13.82-44.10L13.82-44.10L12.29-44.10L12.29-44.10Q11.26-44.10 10.82-44.03L10.82-44.03ZM15.55-24.70L15.36-24.70L15.36-24.70Q16.06-24.58 16.77-24.51L16.77-24.51L16.77-24.51Q17.28-24.45 17.79-24.32L17.79-24.32L17.79-24.32Q17.28-24.45 16.83-24.58L16.83-24.58L16.83-24.58Q16.26-24.70 15.55-24.70L15.55-24.70ZM23.42-49.47L23.42-49.54L23.10-49.54L23.10-49.54Q23.23-49.54 23.42-49.47L23.42-49.47ZM18.11-24.32L18.11-24.32L18.11-24.32Q17.98-24.32 17.79-24.32L17.79-24.32L17.79-24.32Q17.98-24.32 18.11-24.32ZM48.58 0.06L46.98 0.70L46.98 0.70Q46.34 0.83 45.57 0.83L45.57 0.83L43.71 0.83L43.71 0.83Q42.05 0.83 41.38 1.22L41.38 1.22L41.38 1.22Q40.70 1.60 40.58 1.60L40.58 1.60L40.32 0.45L40.32-0.70L40-6.72L40-6.72Q39.87-8.45 39.30-10.43L39.30-10.43L39.30-10.43Q38.72-12.42 38.40-14.46L38.40-14.46L38.40-14.46Q38.21-15.81 38.08-17.02L38.08-17.02L37.82-19.52L37.82-19.52Q37.70-20.80 37.54-22.14L37.54-22.14L37.54-22.14Q37.38-23.49 37.06-25.02L37.06-25.02L37.06-25.02Q37.06-25.41 37.09-25.79L37.09-25.79L37.09-25.79Q37.12-26.18 37.12-26.56L37.12-26.56L37.12-26.56Q37.12-28.54 36.80-30.46L36.80-30.46L36.80-30.46Q36.48-32.38 35.90-34.24L35.90-34.24L35.90-34.24Q36.35-34.43 36.74-34.59L36.74-34.59L36.74-34.59Q37.12-34.75 37.44-34.75L37.44-34.75L37.44-34.75Q37.76-34.75 38.14-34.02L38.14-34.02L38.14-34.02Q38.53-33.28 38.98-30.98L38.98-30.98L38.98-30.98Q39.10-30.98 39.36-31.07L39.36-31.07L39.36-31.07Q39.62-31.17 39.74-31.17L39.74-31.17L39.74-31.17Q39.68-32.26 39.42-33.50L39.42-33.50L39.42-33.50Q39.17-34.75 38.91-35.90L38.91-35.90L38.91-35.90Q38.66-37.06 38.43-37.98L38.43-37.98L38.43-37.98Q38.21-38.91 38.21-39.49L38.21-39.49L38.21-39.49Q38.21-39.62 38.24-39.81L38.24-39.81L38.24-39.81Q38.27-40 38.53-40L38.53-40L38.53-40Q38.85-40 39.36-39.30L39.36-39.30L39.36-39.30Q39.87-38.59 40.45-37.50L40.45-37.50L40.45-37.50Q41.02-36.42 41.57-35.17L41.57-35.17L41.57-35.17Q42.11-33.92 42.56-32.83L42.56-32.83L42.56-32.83Q44.29-36.10 46.50-37.79L46.50-37.79L46.50-37.79Q48.70-39.49 52.29-39.49L52.29-39.49L52.29-39.49Q54.91-39.49 56.58-38.88L56.58-38.88L56.58-38.88Q58.24-38.27 59.17-37.54L59.17-37.54L59.17-37.54Q60.10-36.80 60.42-36.16L60.42-36.16L60.80-35.52L60.80-35.52Q60.80-35.14 60.42-35.01L60.42-35.01L60.42-35.01Q58.75-36.61 56.64-37.44L56.64-37.44L56.64-37.44Q54.53-38.27 52.29-38.27L52.29-38.27L52.29-38.27Q50.11-38.27 49.02-37.70L49.02-37.70L49.02-37.70Q48-37.18 46.85-36.42L46.85-36.42L46.85-36.42Q48.06-37.18 49.09-37.63L49.09-37.63L49.09-37.63Q50.18-38.08 52.22-38.08L52.22-38.08L52.22-38.08Q54.46-38.08 56.51-37.22L56.51-37.22L56.51-37.22Q58.56-36.35 60.03-35.01L60.03-35.01L60.03-35.01Q59.71-34.88 59.49-34.72L59.49-34.72L59.49-34.72Q59.26-34.56 59.26-34.24L59.26-34.24L59.26-34.24Q59.58-34.24 59.97-33.82L59.97-33.82L59.97-33.82Q60.35-33.41 60.67-32.83L60.67-32.83L60.67-32.83Q60.99-32.26 61.22-31.65L61.22-31.65L61.22-31.65Q61.44-31.04 61.44-30.66L61.44-30.66L61.44-30.66Q61.44-29.57 60.61-29.57L60.61-29.57L60.61-29.57Q59.97-29.57 59.07-30.02L59.07-30.02L59.07-30.02Q58.88-30.08 58.27-30.72L58.27-30.72L58.27-30.72Q57.66-31.36 56.77-32.03L56.77-32.03L56.77-32.03Q55.87-32.70 54.72-33.28L54.72-33.28L54.72-33.28Q53.57-33.86 52.16-33.86L52.16-33.86L52.16-33.86Q51.01-33.86 50.14-33.38L50.14-33.38L50.14-33.38Q49.28-32.90 48.58-32.10L48.58-32.10L48.58-32.10Q47.87-31.30 47.30-30.27L47.30-30.27L46.46-28.74L46.46-28.74Q47.42-30.46 48.58-31.87L48.58-31.87L48.58-31.87Q49.86-33.54 51.78-33.54L51.78-33.54L51.78-33.54Q53.44-33.54 54.85-32.80L54.85-32.80L54.85-32.80Q56.26-32.06 57.15-30.98L57.15-30.98L57.15-30.98Q56.06-31.42 54.59-31.87L54.59-31.87L54.59-31.87Q53.12-32.32 51.78-32.32L51.78-32.32L51.78-32.32Q51.07-32.32 50.56-32L50.56-32L50.56-32Q50.05-31.68 49.70-31.20L49.70-31.20L49.70-31.20Q49.34-30.72 49.06-30.14L49.06-30.14L49.06-30.14Q48.77-29.57 48.45-29.06L48.45-29.06L47.62-28.93L47.62-28.93Q46.53-27.07 45.86-24.61L45.86-24.61L45.86-24.61Q45.18-22.14 45.18-19.46L45.18-19.46L45.18-19.46Q45.18-17.86 45.34-16.58L45.34-16.58L45.34-16.58Q45.50-15.30 45.82-13.95L45.82-13.95L46.59-11.97L46.46-13.82L46.46-13.82Q46.34-16 46.21-17.70L46.21-17.70L46.21-17.70Q46.08-19.39 46.08-21.44L46.08-21.44L46.08-21.44Q46.21-23.30 46.59-24.96L46.59-24.96L46.59-24.96Q46.91-26.37 47.55-27.58L47.55-27.58L47.55-27.58Q46.78-26.05 46.53-24.06L46.53-24.06L46.53-24.06Q46.21-21.89 46.21-19.46L46.21-19.46L46.21-19.46Q46.21-17.54 46.40-15.81L46.40-15.81L46.40-15.81Q46.59-14.08 46.88-12.35L46.88-12.35L46.88-12.35Q47.17-10.62 47.49-8.80L47.49-8.80L47.49-8.80Q47.81-6.98 48-4.80L48-4.80L48.19-3.58L48.58 0.06ZM47.55-27.58L47.74-27.90L47.55-27.58ZM98.43-40.32L99.01-38.98L98.82-37.82L98.82-37.82Q98.50-34.69 98.43-31.10L98.43-31.10L98.43-31.10Q98.37-27.58 97.92-24L97.92-24L97.92-24Q98.43-27.52 98.75-30.91L98.75-30.91L98.75-30.91Q99.07-34.43 99.39-37.82L99.39-37.82L99.39-37.82Q99.71-36.80 99.94-35.65L99.94-35.65L99.94-35.65Q100.16-34.50 100.16-33.22L100.16-33.22L100.16-33.22Q99.84-30.02 99.58-27.07L99.58-27.07L99.58-27.07Q99.33-24.13 98.88-20.93L98.88-20.93L98.05-20.74L98.05-20.74Q97.73-17.79 96.70-14.34L96.70-14.34L96.70-14.34Q95.68-10.88 93.73-7.94L93.73-7.94L93.73-7.94Q91.78-4.99 88.70-3.04L88.70-3.04L88.70-3.04Q85.63-1.09 81.34-1.09L81.34-1.09L81.34-1.09Q79.94-1.09 78.37-1.31L78.37-1.31L78.37-1.31Q76.80-1.54 75.33-2.02L75.33-2.02L75.33-2.02Q73.86-2.50 72.51-3.26L72.51-3.26L72.51-3.26Q71.17-4.03 70.21-5.18L70.21-5.18L70.27-5.06L70.27-4.99L70.21-4.93L70.02-4.99L70.02-4.99Q70.40-4.42 70.85-3.97L70.85-3.97L70.85-3.97Q69.70-4.99 68.74-6.34L68.74-6.34L68.74-6.34Q67.14-8.51 66.18-11.52L66.18-11.52L66.18-11.52Q65.60-13.31 65.28-15.17L65.28-15.17L65.28-15.17Q64.96-17.02 64.83-19.10L64.83-19.10L64.83-19.10Q64.70-21.18 64.67-23.62L64.67-23.62L64.67-23.62Q64.64-26.05 64.64-28.99L64.64-28.99L64.64-28.99Q65.22-31.30 65.54-33.60L65.54-33.60L65.54-33.60Q65.86-35.90 65.98-38.21L65.98-38.21L65.98-38.21Q66.18-38.21 66.43-38.27L66.43-38.27L66.43-38.27Q66.69-38.34 66.94-38.34L66.94-38.34L66.94-38.34Q67.39-38.34 67.74-37.82L67.74-37.82L67.74-37.82Q68.10-37.31 68.10-35.65L68.10-35.65L68.10-35.07L68.10-35.07Q68.10-34.82 68.03-34.50L68.03-34.50L68.80-34.50L68.80-34.50Q69.31-37.18 70.02-38.59L70.02-38.59L70.02-38.59Q70.72-40 71.42-40L71.42-40L71.42-40Q71.94-40 72.35-38.56L72.35-38.56L72.35-38.56Q72.77-37.12 72.77-34.05L72.77-34.05L72.77-34.05Q72.77-31.81 72.64-29.50L72.64-29.50L72.64-29.50Q72.51-27.20 72.51-24.77L72.51-24.77L72.51-24.77Q72.51-20.99 72.86-17.92L72.86-17.92L72.86-17.92Q73.22-14.85 74.24-12.67L74.24-12.67L74.24-12.67Q75.26-10.50 77.15-9.31L77.15-9.31L77.15-9.31Q79.04-8.13 82.05-8.13L82.05-8.13L82.05-8.13Q84.54-8.13 86.21-9.66L86.21-9.66L86.21-9.66Q87.87-11.20 89.02-13.76L89.02-13.76L89.02-13.76Q90.18-16.32 90.98-19.68L90.98-19.68L90.98-19.68Q91.78-23.04 92.48-26.69L92.48-26.69L92.48-26.69Q92.61-27.71 92.67-28.74L92.67-28.74L92.67-28.74Q92.74-29.76 92.74-30.85L92.74-30.85L92.74-32.83L92.74-32.83Q92.74-34.69 92.93-35.97L92.93-35.97L92.93-35.97Q93.12-37.25 94.02-37.44L94.02-37.44L94.02-37.44Q94.02-34.18 93.82-30.98L93.82-30.98L93.82-30.98Q93.70-27.90 93.31-24.83L93.31-24.83L93.31-24.83Q93.76-27.84 94.02-30.85L94.02-30.85L94.02-30.85Q94.27-33.98 94.40-37.25L94.40-37.25L94.40-37.25Q94.78-36.99 95.04-36.99L95.04-36.99L95.04-36.99Q95.30-36.99 95.55-37.25L95.55-37.25L95.55-39.55L95.55-39.55Q95.87-40.70 96.19-41.18L96.19-41.18L96.19-41.18Q96.51-41.66 96.90-41.66L96.90-41.66L96.90-41.66Q97.28-41.66 97.66-41.28L97.66-41.28L97.66-41.28Q98.05-40.90 98.43-40.32L98.43-40.32ZM72.58-2.69L72.58-2.69L72.58-2.69Q74.11-1.86 75.74-1.38L75.74-1.38L75.74-1.38Q77.38-0.90 78.82-0.70L78.82-0.70L78.82-0.70Q80.26-0.51 81.15-0.51L81.15-0.51L81.15-0.51Q85.63-0.51 88.77-2.50L88.77-2.50L88.77-2.50Q91.90-4.48 93.92-7.46L93.92-7.46L93.92-7.46Q95.94-10.43 97.02-13.82L97.02-13.82L97.02-13.82Q98.05-17.02 98.56-19.71L98.56-19.71L98.56-19.71Q98.11-17.02 97.15-13.76L97.15-13.76L97.15-13.76Q96.06-10.30 94.05-7.30L94.05-7.30L94.05-7.30Q92.03-4.29 88.96-2.24L88.96-2.24L88.96-2.24Q85.89-0.19 81.54-0.19L81.54-0.19L81.54-0.19Q79.10-0.19 76.74-0.83L76.74-0.83L76.74-0.83Q74.37-1.47 72.32-2.82L72.32-2.82L72.32-2.82Q72.45-2.75 72.58-2.69ZM97.09-18.43L97.09-18.43L97.09-18.43Q97.28-19.52 97.41-20.54L97.41-20.54L97.41-20.54Q97.54-21.44 97.66-22.34L97.66-22.34L97.66-22.34Q97.28-19.52 96.38-16.38L96.38-16.38L96.38-16.38Q95.49-13.12 93.89-10.21L93.89-10.21L93.89-10.21Q92.29-7.30 89.86-5.06L89.86-5.06L89.86-5.06Q87.55-2.94 84.48-2.18L84.48-2.18L84.48-2.18Q87.17-2.75 89.28-4.42L89.28-4.42L89.28-4.42Q91.46-6.14 92.99-8.45L92.99-8.45L92.99-8.45Q94.53-10.75 95.52-13.38L95.52-13.38L95.52-13.38Q96.51-16 97.09-18.43ZM90.75-13.95L90.75-13.95L90.75-13.95Q90.05-12.54 89.18-11.26L89.18-11.26L89.18-11.26Q88.32-9.98 87.23-8.96L87.23-8.96L87.23-8.96Q88.38-9.92 89.25-11.20L89.25-11.20L89.25-11.20Q90.11-12.48 90.75-13.95ZM72.32-2.82L72.32-2.82L72.32-2.82Q71.55-3.33 70.85-3.97L70.85-3.97L70.85-3.97Q71.55-3.33 72.32-2.82ZM98.56-19.71L98.62-20.16L98.56-19.71ZM97.73-22.66L97.73-22.66L97.73-22.66Q97.66-22.46 97.66-22.34L97.66-22.34L97.66-22.34Q97.66-22.46 97.73-22.66ZM108.22-3.33L108.22-3.33L108.22-3.33Q108.48-5.12 108.70-7.52L108.70-7.52L108.70-7.52Q108.93-9.92 109.12-12.35L109.12-12.35L109.12-12.35Q109.31-14.78 109.50-17.12L109.50-17.12L109.50-17.12Q109.70-19.46 109.89-21.18L109.89-21.18L109.89-21.18Q109.57-19.46 109.31-17.22L109.31-17.22L109.31-17.22Q109.06-14.98 108.80-12.61L108.80-12.61L108.80-12.61Q108.54-10.24 108.29-7.90L108.29-7.90L108.29-7.90Q108.03-5.57 107.84-3.71L107.84-3.71L107.84-3.71Q106.88-4.35 106.88-5.44L106.88-5.44L106.88-5.44Q106.88-6.72 106.94-7.58L106.94-7.58L106.94-7.58Q107.01-8.45 107.14-9.60L107.14-9.60L107.84-10.24L107.84-10.24Q107.78-10.56 107.78-10.82L107.78-10.82L107.78-11.46L107.78-11.46Q107.78-12.93 108.10-14.82L108.10-14.82L108.10-14.82Q108.42-16.70 108.83-18.66L108.83-18.66L108.83-18.66Q109.25-20.61 109.57-22.43L109.57-22.43L109.57-22.43Q109.89-24.26 109.89-25.60L109.89-25.60L109.12-25.79L109.12-25.79Q108.99-24.26 108.74-22.30L108.74-22.30L108.74-22.30Q108.48-20.35 108.19-18.27L108.19-18.27L108.19-18.27Q107.90-16.19 107.65-14.14L107.65-14.14L107.65-14.14Q107.52-13.06 107.39-12.10L107.39-12.10L107.39-12.10Q107.52-13.89 107.71-15.94L107.71-15.94L107.71-15.94Q108.03-18.88 108.38-21.79L108.38-21.79L108.38-21.79Q108.74-24.70 109.06-27.52L109.06-27.52L109.06-27.52Q109.38-30.34 109.70-32.70L109.70-32.70L109.70-32.70Q109.70-33.66 110.18-34.78L110.18-34.78L110.18-34.78Q110.66-35.90 110.85-37.12L110.85-37.12L110.85-37.12Q111.23-36.99 111.49-36.99L111.49-36.99L111.94-36.99L111.94-36.99Q112.58-36.99 112.77-36.70L112.77-36.70L112.77-36.70Q112.96-36.42 112.96-35.90L112.96-35.90L112.96-35.58L113.54-35.39L113.54-35.39Q114.05-36.35 114.75-36.93L114.75-36.93L114.75-36.93Q115.46-37.50 116.16-37.50L116.16-37.50L116.16-37.50Q117.70-37.50 117.70-34.24L117.70-34.24L117.70-34.24Q117.70-32.51 117.34-30.56L117.34-30.56L117.34-30.56Q116.99-28.61 116.99-26.75L116.99-26.75L116.99-25.92L116.99-25.92Q116.99-23.87 116.54-21.47L116.54-21.47L116.54-21.47Q116.10-19.07 115.55-16.61L115.55-16.61L115.55-16.61Q115.01-14.14 114.56-11.84L114.56-11.84L114.56-11.84Q114.11-9.54 114.11-7.62L114.11-7.62L114.11-7.62Q114.11-7.17 114.18-6.66L114.18-6.66L114.18-6.66Q114.24-6.14 114.24-5.70L114.24-5.70L114.24-5.70Q114.24-4.74 113.89-4.51L113.89-4.51L113.89-4.51Q113.54-4.29 113.02-4.29L113.02-4.29L113.02-4.29Q113.02-5.12 112.96-6.34L112.96-6.34L112.96-6.34Q112.90-7.55 112.90-8.51L112.90-8.51L112.90-8.51Q112.77-7.81 112.77-6.59L112.77-6.59L112.77-6.59Q112.77-5.38 112.64-4.29L112.64-4.29L111.68-4.29L111.68-3.52L111.68-3.52Q111.10-2.50 110.14-2.50L110.14-2.50L110.14-2.50Q109.70-2.50 109.12-2.75L109.12-2.75L109.12-2.75Q108.54-3.01 108.22-3.33ZM121.41-52.48L121.41-52.48L121.41-52.48Q120.32-51.84 119.42-50.82L119.42-50.82L119.42-50.82Q118.53-49.79 117.57-48.83L117.57-48.83L117.57-48.83Q118.14-49.22 118.59-49.66L118.59-49.66L118.59-49.66Q119.04-50.11 119.52-50.56L119.52-50.56L119.52-50.56Q120-51.01 120.54-51.46L120.54-51.46L120.54-51.46Q121.09-51.90 121.79-52.29L121.79-52.29L121.79-52.29Q121.98-52.03 122.14-51.84L122.14-51.84L122.14-51.84Q122.30-51.65 122.30-51.46L122.30-51.46L120.83-49.98L120.83-49.98Q120.83-50.11 120.61-50.24L120.61-50.24L120.61-50.24Q120.38-50.37 120.26-50.37L120.26-50.37L120.26-50.37Q120.06-49.73 119.62-49.34L119.62-49.34L119.62-49.34Q119.17-48.96 118.72-48.64L118.72-48.64L118.72-48.64Q118.27-48.32 117.82-47.94L117.82-47.94L117.82-47.94Q117.38-47.55 117.18-46.91L117.18-46.91L117.18-46.78L117.18-46.78Q117.18-46.72 117.38-46.72L117.38-46.72L120.58-49.73L119.36-48.51L119.36-48.51Q118.46-47.62 117.47-46.69L117.47-46.69L117.47-46.69Q116.48-45.76 115.62-45.06L115.62-45.06L115.62-45.06Q114.75-44.35 114.56-44.35L114.56-44.35L114.50-44.42L114.50-44.42Q114.05-44.54 113.57-44.54L113.57-44.54L113.57-44.54Q113.09-44.54 112.58-44.61L112.58-44.61L112.58-44.61Q112.58-45.12 112.42-45.70L112.42-45.70L112.42-45.70Q112.26-46.27 112.26-46.59L112.26-46.59L112.26-46.59Q112.26-46.91 112.58-46.91L112.58-46.91L112.58-46.91Q112.58-47.10 112.35-47.52L112.35-47.52L112.35-47.52Q112.13-47.94 111.87-48.48L111.87-48.48L111.87-48.48Q111.62-49.02 111.39-49.63L111.39-49.63L111.39-49.63Q111.17-50.24 111.17-50.88L111.17-50.88L111.17-50.88Q111.17-51.52 111.71-52.13L111.71-52.13L111.71-52.13Q112.26-52.74 112.99-53.18L112.99-53.18L112.99-53.18Q113.73-53.63 114.43-53.95L114.43-53.95L114.43-53.95Q115.14-54.27 115.46-54.40L115.46-54.40L115.46-54.40Q115.71-54.40 115.65-54.69L115.65-54.69L115.65-54.69Q115.58-54.98 115.84-54.98L115.84-54.98L116.99-54.59L116.99-54.59Q116.86-54.27 116.19-53.54L116.19-53.54L116.19-53.54Q115.52-52.80 115.20-52.48L115.20-52.48L115.20-52.48Q115.65-52.80 116.26-53.44L116.26-53.44L116.26-53.44Q116.86-54.08 117.18-54.40L117.18-54.40L117.18-54.40Q117.50-54.27 117.76-54.14L117.76-54.14L117.76-54.14Q118.02-54.02 118.14-54.02L118.14-54.02L118.34-54.21L118.34-54.21Q118.78-54.21 119.33-54.02L119.33-54.02L119.33-54.02Q119.87-53.82 120.32-53.57L120.32-53.57L120.32-53.57Q120.77-53.31 121.09-52.99L121.09-52.99L121.09-52.99Q121.41-52.67 121.41-52.48ZM107.26-10.56L107.26-10.56L107.26-10.56Q107.33-11.26 107.39-11.97L107.39-11.97L107.39-11.97Q107.33-11.20 107.26-10.56ZM151.23-32L151.23-32L151.23-32Q150.66-32 149.66-31.81L149.66-31.81L149.66-31.81Q148.67-31.62 147.68-31.36L147.68-31.36L147.68-31.36Q146.69-31.10 145.89-30.85L145.89-30.85L145.89-30.85Q145.09-30.59 144.90-30.46L144.90-30.46L144.90-30.46Q146.56-30.72 147.97-31.07L147.97-31.07L147.97-31.07Q149.38-31.42 151.04-31.42L151.04-31.42L151.04-31.42Q150.72-30.85 150.21-30.53L150.21-30.53L150.21-30.53Q149.70-30.21 149.09-30.05L149.09-30.05L149.09-30.05Q148.48-29.89 147.78-29.79L147.78-29.79L147.78-29.79Q147.07-29.70 146.30-29.50L146.30-29.50L145.86-30.08L145.86-30.08Q144.64-29.63 144-29.54L144-29.54L144-29.54Q143.36-29.44 142.66-29.44L142.66-29.44L142.66-29.44Q141.89-29.44 141.09-29.47L141.09-29.47L141.09-29.47Q140.29-29.50 139.33-29.50L139.33-29.50L139.33-29.50Q139.33-29.18 139.26-28.99L139.26-28.99L139.26-28.99Q140.74-28.99 141.76-29.02L141.76-29.02L141.76-29.02Q142.78-29.06 144.26-29.25L144.26-29.25L144.26-29.25Q142.85-28.99 141.79-28.86L141.79-28.86L141.79-28.86Q140.74-28.74 139.26-28.74L139.26-28.74L139.26-28.74Q139.01-27.26 138.82-25.86L138.82-25.86L138.82-25.86Q138.62-24.45 138.62-23.10L138.62-23.10L138.62-23.10Q138.62-22.34 138.69-21.31L138.69-21.31L138.69-21.31Q138.75-20.29 138.85-19.23L138.85-19.23L138.85-19.23Q138.94-18.18 139.01-17.25L139.01-17.25L139.01-17.25Q139.07-16.32 139.07-15.87L139.07-15.87L139.07-12.03L139.07-12.03Q139.39-10.75 140.93-10.11L140.93-10.11L140.93-10.11Q142.46-9.47 145.34-9.47L145.34-9.47L147.39-9.47L147.39-9.47Q148.48-9.47 148.90-9.25L148.90-9.25L148.90-9.25Q149.31-9.02 149.31-8.64L149.31-8.64L149.31-8.64Q149.31-8.32 148.80-8.29L148.80-8.29L148.80-8.29Q148.29-8.26 147.78-8.26L147.78-8.26L147.78-8.26Q145.92-8.26 143.87-8.51L143.87-8.51L143.87-8.51Q141.95-8.77 140.10-9.09L140.10-9.09L140.10-9.09Q141.95-8.64 144-8.26L144-8.26L144-8.26Q146.11-7.94 148.10-7.94L148.10-7.94L148.67-7.94L148.67-7.94Q148.93-7.94 149.25-8L149.25-8L149.25-8Q149.25-7.68 149.28-7.42L149.28-7.42L149.28-7.42Q149.31-7.17 149.44-6.85L149.44-6.85L149.95-6.98L149.95-6.98Q150.14-7.04 150.40-7.07L150.40-7.07L150.40-7.07Q150.66-7.10 150.78-7.23L150.78-7.23L150.78-7.23Q152.83-7.04 152.83-5.82L152.83-5.82L152.83-5.82Q152.83-5.12 152.45-4.67L152.45-4.67L152.45-4.67Q152.06-4.22 151.49-3.97L151.49-3.97L151.49-3.97Q150.91-3.71 150.21-3.62L150.21-3.62L150.21-3.62Q149.50-3.52 148.86-3.52L148.86-3.52L148.86-3.52Q146.62-3.52 144.48-3.81L144.48-3.81L144.48-3.81Q142.34-4.10 140.29-4.42L140.29-4.42L140.29-4.42Q142.08-3.78 144.83-3.39L144.83-3.39L144.83-3.39Q147.58-3.01 150.40-3.01L150.40-3.01L150.40-3.01Q149.70-2.56 148.74-2.30L148.74-2.30L148.74-2.30Q147.78-2.05 146.75-2.05L146.75-2.05L142.14-2.62L142.14-2.62Q141.25-2.75 140.77-2.88L140.77-2.88L140.77-2.88Q140.29-3.01 139.84-3.17L139.84-3.17L139.84-3.17Q139.39-3.33 138.85-3.52L138.85-3.52L138.85-3.52Q138.30-3.71 137.34-3.97L137.34-3.97L137.34-4.67L137.34-4.67Q135.68-5.12 134.66-6.21L134.66-6.21L134.66-6.21Q133.63-7.30 133.06-8.58L133.06-8.58L133.06-8.58Q132.48-9.86 132.29-11.17L132.29-11.17L132.29-11.17Q132.10-12.48 132.10-13.50L132.10-13.50L132.10-13.50Q132.10-14.59 132.13-15.52L132.13-15.52L132.13-15.52Q132.16-16.45 132.16-17.41L132.16-17.41L132.16-17.41Q132.16-18.11 132.13-19.20L132.13-19.20L132.13-19.20Q132.10-20.29 132.03-21.50L132.03-21.50L132.03-21.50Q131.97-22.72 131.94-24L131.94-24L131.94-24Q131.90-25.28 131.90-26.43L131.90-26.43L131.90-26.43Q131.90-27.14 131.94-27.78L131.94-27.78L131.94-27.78Q131.97-28.42 132.03-28.93L132.03-28.93L131.39-28.93L131.39-28.93Q131.33-28.48 131.33-27.90L131.33-27.90L131.33-26.75L131.33-26.75Q131.33-24.90 131.39-23.07L131.39-23.07L131.39-23.07Q131.46-21.25 131.49-19.71L131.49-19.71L131.49-19.71Q131.52-18.18 131.58-17.06L131.58-17.06L131.58-17.06Q131.65-15.94 131.65-15.42L131.65-15.42L131.65-12.86L131.65-12.35L131.65-12.35Q131.46-14.08 131.26-17.28L131.26-17.28L131.26-17.28Q131.07-20.99 131.07-25.47L131.07-25.47L131.07-26.62L131.07-26.62Q131.07-27.33 131.10-27.97L131.10-27.97L131.10-27.97Q131.14-28.61 131.26-28.93L131.26-28.93L129.09-29.06L129.09-29.06Q128.38-29.50 127.68-29.76L127.68-29.76L127.68-29.76Q126.98-30.02 126.40-30.02L126.40-30.02L126.40-31.30L126.40-31.30Q126.40-31.68 126.50-31.97L126.50-31.97L126.50-31.97Q126.59-32.26 127.10-32.26L127.10-32.26L127.10-32.26Q127.23-32.26 127.74-32.13L127.74-32.13L127.74-32.90L127.74-32.90Q127.04-33.28 126.59-33.95L126.59-33.95L126.59-33.95Q126.14-34.62 126.14-35.33L126.14-35.33L126.14-35.33Q126.14-36.99 128.51-36.99L128.51-36.99L128.51-36.99Q129.41-36.99 130.37-36.86L130.37-36.86L130.37-36.86Q131.33-36.74 132.35-36.67L132.35-36.67L132.35-36.67Q132.61-38.08 132.80-39.20L132.80-39.20L132.80-39.20Q132.99-40.32 133.18-41.38L133.18-41.38L133.18-41.38Q133.38-42.43 133.63-43.49L133.63-43.49L133.63-43.49Q133.89-44.54 134.27-45.70L134.27-45.70L134.27-45.70Q134.85-46.98 135.17-48.48L135.17-48.48L135.17-48.48Q135.49-49.98 135.62-51.46L135.62-51.46L136.96-51.39L136.96-51.39Q137.28-51.39 137.50-51.20L137.50-51.20L137.50-51.20Q137.73-51.01 137.73-50.30L137.73-50.30L137.73-50.30Q137.73-49.73 137.54-48.77L137.54-48.77L138.30-48.58L138.30-48.58Q138.82-50.30 139.55-51.39L139.55-51.39L139.55-51.39Q140.29-52.48 140.99-52.48L140.99-52.48L140.99-52.48Q142.08-52.48 142.34-49.73L142.34-49.73L142.34-48.58L142.34-48.58Q142.34-46.91 142.11-45.47L142.11-45.47L142.11-45.47Q141.89-44.03 141.57-42.62L141.57-42.62L141.57-42.62Q141.25-41.22 140.93-39.74L140.93-39.74L140.93-39.74Q140.61-38.27 140.35-36.54L140.35-36.54L140.35-36.54Q141.76-36.35 143.10-36.35L143.10-36.35L143.10-36.35Q143.74-36.35 144.38-36.38L144.38-36.38L144.38-36.38Q145.02-36.42 145.66-36.42L145.66-36.42L145.66-36.42Q146.30-36.42 147.01-36.93L147.01-36.93L147.01-36.93Q147.71-37.44 148.29-37.44L148.29-37.44L148.29-37.44Q148.80-37.44 149.06-37.12L149.06-37.12L149.06-37.12Q149.31-36.80 149.31-36.42L149.31-36.42L149.31-36.42Q148.16-36.10 147.04-35.74L147.04-35.74L147.04-35.74Q145.92-35.39 144.90-35.07L144.90-35.07L144.90-35.07Q145.92-35.20 147.07-35.55L147.07-35.55L147.07-35.55Q148.22-35.90 149.50-36.22L149.50-36.22L149.50-36.22Q149.50-35.90 149.54-35.65L149.54-35.65L149.54-35.65Q149.57-35.39 149.70-35.07L149.70-35.07L149.70-35.07Q149.82-35.07 150.02-35.14L150.02-35.14L150.02-35.14Q150.40-35.26 150.46-35.26L150.46-35.26L150.46-35.26Q151.10-34.94 151.30-34.46L151.30-34.46L151.30-34.46Q151.49-33.98 151.49-33.41L151.49-33.41L151.49-33.41Q151.49-32.96 151.36-32.61L151.36-32.61L151.36-32.61Q151.23-32.26 151.23-32ZM134.27-8.38L134.27-8.38L134.27-8.38Q133.38-10.11 133.31-11.78L133.31-11.78L133.31-11.78Q133.25-13.44 133.12-14.91L133.12-14.91L132.54-24.64L132.35-23.49L132.35-23.49Q132.35-19.20 132.64-15.71L132.64-15.71L132.64-15.71Q132.93-12.22 133.50-10.30L133.50-10.30L133.50-10.30Q133.50-9.73 133.47-9.54L133.47-9.54L133.47-9.54Q133.44-9.34 133.44-9.22L133.44-9.22L133.44-9.22Q133.44-9.09 133.60-8.90L133.60-8.90L133.60-8.90Q133.76-8.70 134.27-8.38ZM137.92-11.84L137.92-11.84L137.92-11.84Q137.79-12.35 137.79-12.93L137.79-12.93L137.79-16.06L137.79-16.06Q137.73-15.42 137.66-14.82L137.66-14.82L137.66-14.82Q137.60-14.21 137.60-13.57L137.60-13.57L137.60-13.57Q137.60-11.90 137.79-11.01L137.79-11.01L137.79-11.01Q137.98-10.24 138.56-9.73L138.56-9.73L138.56-9.73Q138.24-10.11 138.11-10.56L138.11-10.56L138.11-10.56Q138.05-11.07 137.92-11.84ZM131.65-12.35L131.71-11.90L131.65-12.35ZM138.69-9.66L138.69-9.66L138.69-9.66Q138.62-9.73 138.56-9.73L138.56-9.73L138.56-9.73Q138.62-9.73 138.69-9.66ZM177.79-4.29L177.79-4.29L177.79-4.29Q177.79-4.67 178.24-4.99L178.24-4.99L178.24-4.99Q178.69-5.31 179.30-5.57L179.30-5.57L179.30-5.57Q179.90-5.82 180.51-6.02L180.51-6.02L180.51-6.02Q181.12-6.21 181.44-6.34L181.44-6.34L181.44-6.34Q184.51-5.95 187.58-5.70L187.58-5.70L187.58-5.70Q190.66-5.44 193.73-5.44L193.73-5.44L193.73-5.44Q194.88-5.44 196.93-5.47L196.93-5.47L196.93-5.47Q198.98-5.50 201.41-5.70L201.41-5.70L201.41-5.70Q203.84-5.89 206.34-6.30L206.34-6.30L206.34-6.30Q208.83-6.72 210.88-7.49L210.88-7.49L210.88-7.49Q212.93-8.26 214.21-9.41L214.21-9.41L214.21-9.41Q215.49-10.56 215.49-12.29L215.49-12.29L215.49-12.29Q215.49-13.70 214.88-14.82L214.88-14.82L214.88-14.82Q214.27-15.94 213.28-16.80L213.28-16.80L213.28-16.80Q212.29-17.66 211.07-18.24L211.07-18.24L211.07-18.24Q210.62-18.50 210.11-18.69L210.11-18.69L210.11-18.69Q210.62-18.43 211.07-18.18L211.07-18.18L211.07-18.18Q212.22-17.54 213.15-16.61L213.15-16.61L213.15-16.61Q214.08-15.68 214.66-14.56L214.66-14.56L214.66-14.56Q215.23-13.44 215.23-12.03L215.23-12.03L215.23-12.03Q215.23-10.50 214.11-9.44L214.11-9.44L214.11-9.44Q212.99-8.38 211.23-7.68L211.23-7.68L211.23-7.68Q209.47-6.98 207.33-6.59L207.33-6.59L207.33-6.59Q205.18-6.21 203.07-6.02L203.07-6.02L203.07-6.02Q200.96-5.82 199.17-5.79L199.17-5.79L199.17-5.79Q197.38-5.76 196.35-5.76L196.35-5.76L196.35-5.76Q193.09-5.76 189.79-5.98L189.79-5.98L189.79-5.98Q186.50-6.21 183.23-6.53L183.23-6.53L183.23-6.53Q184.38-6.85 185.57-7.01L185.57-7.01L185.57-7.01Q186.75-7.17 187.97-7.17L187.97-7.17L187.97-7.17Q190.02-7.17 192.00-7.14L192.00-7.14L192.00-7.14Q193.98-7.10 195.97-7.10L195.97-7.10L195.97-7.10Q198.34-7.10 200.64-7.20L200.64-7.20L200.64-7.20Q202.94-7.30 205.38-7.68L205.38-7.68L205.57-6.91L205.57-6.91Q206.53-7.10 208-7.52L208-7.52L208-7.52Q209.47-7.94 210.85-8.58L210.85-8.58L210.85-8.58Q212.22-9.22 213.22-10.18L213.22-10.18L213.22-10.18Q214.21-11.14 214.21-12.42L214.21-12.42L214.21-12.42Q214.21-14.27 212.86-15.68L212.86-15.68L212.86-15.68Q211.52-17.09 209.44-18.21L209.44-18.21L209.44-18.21Q207.36-19.33 204.74-20.16L204.74-20.16L204.74-20.16Q202.11-20.99 199.58-21.63L199.58-21.63L199.58-21.63Q197.06-22.27 194.82-22.78L194.82-22.78L194.82-22.78Q192.58-23.30 191.23-23.74L191.23-23.74L191.23-23.36L191.23-23.36Q192.58-22.85 194.75-22.30L194.75-22.30L194.75-22.30Q196.93-21.76 199.46-21.12L199.46-21.12L199.46-21.12Q201.98-20.48 204.54-19.68L204.54-19.68L204.54-19.68Q207.10-18.88 209.18-17.79L209.18-17.79L209.18-17.79Q211.26-16.70 212.58-15.30L212.58-15.30L212.58-15.30Q213.89-13.89 213.89-12.10L213.89-12.10L213.89-12.10Q213.89-11.07 212.93-10.30L212.93-10.30L212.93-10.30Q211.97-9.54 210.66-8.99L210.66-8.99L210.66-8.99Q209.34-8.45 208-8.13L208-8.13L208-8.13Q206.66-7.81 205.95-7.68L205.95-7.68L205.95-7.68Q206.78-7.87 208.10-8.22L208.10-8.22L208.10-8.22Q209.41-8.58 210.66-9.15L210.66-9.15L210.66-9.15Q211.90-9.73 212.80-10.53L212.80-10.53L212.80-10.53Q213.70-11.33 213.70-12.42L213.70-12.42L213.70-12.42Q213.70-14.21 212.29-15.42L212.29-15.42L212.29-15.42Q210.88-16.64 208.58-17.60L208.58-17.60L208.58-17.60Q206.27-18.56 203.33-19.33L203.33-19.33L203.33-19.33Q200.38-20.10 197.28-20.99L197.28-20.99L197.28-20.99Q194.18-21.89 191.23-23.04L191.23-23.04L191.23-23.04Q188.29-24.19 185.98-25.92L185.98-25.92L185.98-25.92Q183.68-27.65 182.27-30.02L182.27-30.02L182.27-30.02Q180.86-32.38 180.86-35.71L180.86-35.71L180.86-35.71Q180.86-38.98 182.43-41.25L182.43-41.25L182.43-41.25Q184.00-43.52 186.46-44.96L186.46-44.96L186.46-44.96Q188.93-46.40 191.87-47.04L191.87-47.04L191.87-47.04Q194.82-47.68 197.57-47.68L197.57-47.68L197.57-47.68Q201.60-47.68 205.47-46.53L205.47-46.53L205.47-46.53Q209.34-45.38 212.80-43.33L212.80-43.33L212.80-43.33Q212.42-43.20 212.35-42.98L212.35-42.98L212.35-42.98Q212.29-42.75 212.26-42.50L212.26-42.50L212.26-42.50Q212.22-42.24 212.13-42.05L212.13-42.05L212.13-42.05Q212.03-41.86 211.71-41.86L211.71-41.86L211.71-41.86Q211.46-41.86 210.72-42.08L210.72-42.08L210.72-42.08Q209.98-42.30 209.15-42.59L209.15-42.59L209.15-42.59Q208.32-42.88 207.55-43.14L207.55-43.14L207.55-43.14Q206.78-43.39 206.53-43.52L206.53-43.52L206.34-42.94L206.34-42.94Q206.91-42.69 207.84-42.21L207.84-42.21L207.84-42.21Q208.77-41.73 209.63-41.06L209.63-41.06L209.63-41.06Q210.50-40.38 211.10-39.62L211.10-39.62L211.10-39.62Q211.71-38.85 211.71-38.08L211.71-38.08L211.71-38.08Q211.71-37.25 210.94-37.25L210.94-37.25L210.94-37.25Q209.98-37.25 208.67-37.76L208.67-37.76L208.67-37.76Q207.36-38.27 205.76-38.88L205.76-38.88L205.76-38.88Q204.16-39.49 202.34-40L202.34-40L202.34-40Q200.51-40.51 198.66-40.51L198.66-40.51L198.66-40.51Q197.44-40.51 195.81-40.29L195.81-40.29L195.81-40.29Q194.18-40.06 192.67-39.46L192.67-39.46L192.67-39.46Q191.17-38.85 190.14-37.79L190.14-37.79L190.14-37.79Q189.12-36.74 189.12-35.14L189.12-35.14L189.12-35.14Q189.12-33.66 190.50-32.64L190.50-32.64L190.50-32.64Q191.87-31.62 194.14-30.78L194.14-30.78L194.14-30.78Q196.42-29.95 199.30-29.18L199.30-29.18L199.30-29.18Q202.18-28.42 205.22-27.49L205.22-27.49L205.22-27.49Q208.26-26.56 211.14-25.34L211.14-25.34L211.14-25.34Q214.02-24.13 216.29-22.40L216.29-22.40L216.29-22.40Q218.56-20.67 219.94-18.30L219.94-18.30L219.94-18.30Q221.31-15.94 221.31-12.74L221.31-12.74L221.31-12.74Q221.31-9.60 220.03-7.42L220.03-7.42L220.03-7.42Q218.75-5.25 216.64-3.81L216.64-3.81L216.64-3.81Q214.53-2.37 211.84-1.57L211.84-1.57L211.84-1.57Q209.15-0.77 206.30-0.35L206.30-0.35L206.30-0.35Q203.46 0.06 200.67 0.16L200.67 0.16L200.67 0.16Q197.89 0.26 195.65 0.26L195.65 0.26L189.25 0.26L189.25 0.26Q188.67 0.26 187.68 0.22L187.68 0.22L187.68 0.22Q186.69 0.19 185.73 0.10L185.73 0.10L185.73 0.10Q184.77 0 184.06-0.26L184.06-0.26L184.06-0.26Q183.36-0.51 183.36-0.90L183.36-0.90L183.42-1.22L183.42-1.22Q186.05-1.09 188.61-0.99L188.61-0.99L188.61-0.99Q191.17-0.90 193.79-0.90L193.79-0.90L193.79-0.90Q196.22-0.90 198.66-0.90L198.66-0.90L198.66-0.90Q200.83-0.96 203.01-1.15L203.01-1.15L203.01-1.15Q201.92-1.09 200.83-1.02L200.83-1.02L200.83-1.02Q199.49-1.02 198.21-1.02L198.21-1.02L195.65-1.02L195.65-1.02Q189.63-1.02 183.81-1.41L183.81-1.41L183.81-1.41Q183.94-1.92 183.94-2.11L183.94-2.11L183.94-2.11Q183.94-2.37 183.81-2.62L183.81-2.62L183.81-2.62Q183.68-2.62 183.46-2.59L183.46-2.59L183.46-2.59Q183.23-2.56 182.91-2.56L182.91-2.56L182.91-2.56Q182.21-2.56 181.34-2.62L181.34-2.62L181.34-2.62Q180.48-2.69 179.68-2.88L179.68-2.88L179.68-2.88Q178.88-3.07 178.34-3.42L178.34-3.42L178.34-3.42Q177.79-3.78 177.79-4.29ZM217.09-5.95L217.09-5.95L217.09-5.95Q216-4.99 214.78-4.35L214.78-4.35L214.78-4.35Q213.70-3.78 212.54-3.26L212.54-3.26L212.54-3.26Q213.70-3.65 214.78-4.16L214.78-4.16L214.78-4.16Q216-4.67 217.09-5.95ZM249.60-32L249.60-32L249.60-32Q249.02-32 248.03-31.81L248.03-31.81L248.03-31.81Q247.04-31.62 246.05-31.36L246.05-31.36L246.05-31.36Q245.06-31.10 244.26-30.85L244.26-30.85L244.26-30.85Q243.46-30.59 243.26-30.46L243.26-30.46L243.26-30.46Q244.93-30.72 246.34-31.07L246.34-31.07L246.34-31.07Q247.74-31.42 249.41-31.42L249.41-31.42L249.41-31.42Q249.09-30.85 248.58-30.53L248.58-30.53L248.58-30.53Q248.06-30.21 247.46-30.05L247.46-30.05L247.46-30.05Q246.85-29.89 246.14-29.79L246.14-29.79L246.14-29.79Q245.44-29.70 244.67-29.50L244.67-29.50L244.22-30.08L244.22-30.08Q243.01-29.63 242.37-29.54L242.37-29.54L242.37-29.54Q241.73-29.44 241.02-29.44L241.02-29.44L241.02-29.44Q240.26-29.44 239.46-29.47L239.46-29.47L239.46-29.47Q238.66-29.50 237.70-29.50L237.70-29.50L237.70-29.50Q237.70-29.18 237.63-28.99L237.63-28.99L237.63-28.99Q239.10-28.99 240.13-29.02L240.13-29.02L240.13-29.02Q241.15-29.06 242.62-29.25L242.62-29.25L242.62-29.25Q241.22-28.99 240.16-28.86L240.16-28.86L240.16-28.86Q239.10-28.74 237.63-28.74L237.63-28.74L237.63-28.74Q237.38-27.26 237.18-25.86L237.18-25.86L237.18-25.86Q236.99-24.45 236.99-23.10L236.99-23.10L236.99-23.10Q236.99-22.34 237.06-21.31L237.06-21.31L237.06-21.31Q237.12-20.29 237.22-19.23L237.22-19.23L237.22-19.23Q237.31-18.18 237.38-17.25L237.38-17.25L237.38-17.25Q237.44-16.32 237.44-15.87L237.44-15.87L237.44-12.03L237.44-12.03Q237.76-10.75 239.30-10.11L239.30-10.11L239.30-10.11Q240.83-9.47 243.71-9.47L243.71-9.47L245.76-9.47L245.76-9.47Q246.85-9.47 247.26-9.25L247.26-9.25L247.26-9.25Q247.68-9.02 247.68-8.64L247.68-8.64L247.68-8.64Q247.68-8.32 247.17-8.29L247.17-8.29L247.17-8.29Q246.66-8.26 246.14-8.26L246.14-8.26L246.14-8.26Q244.29-8.26 242.24-8.51L242.24-8.51L242.24-8.51Q240.32-8.77 238.46-9.09L238.46-9.09L238.46-9.09Q240.32-8.64 242.37-8.26L242.37-8.26L242.37-8.26Q244.48-7.94 246.46-7.94L246.46-7.94L247.04-7.94L247.04-7.94Q247.30-7.94 247.62-8L247.62-8L247.62-8Q247.62-7.68 247.65-7.42L247.65-7.42L247.65-7.42Q247.68-7.17 247.81-6.85L247.81-6.85L248.32-6.98L248.32-6.98Q248.51-7.04 248.77-7.07L248.77-7.07L248.77-7.07Q249.02-7.10 249.15-7.23L249.15-7.23L249.15-7.23Q251.20-7.04 251.20-5.82L251.20-5.82L251.20-5.82Q251.20-5.12 250.82-4.67L250.82-4.67L250.82-4.67Q250.43-4.22 249.86-3.97L249.86-3.97L249.86-3.97Q249.28-3.71 248.58-3.62L248.58-3.62L248.58-3.62Q247.87-3.52 247.23-3.52L247.23-3.52L247.23-3.52Q244.99-3.52 242.85-3.81L242.85-3.81L242.85-3.81Q240.70-4.10 238.66-4.42L238.66-4.42L238.66-4.42Q240.45-3.78 243.20-3.39L243.20-3.39L243.20-3.39Q245.95-3.01 248.77-3.01L248.77-3.01L248.77-3.01Q248.06-2.56 247.10-2.30L247.10-2.30L247.10-2.30Q246.14-2.05 245.12-2.05L245.12-2.05L240.51-2.62L240.51-2.62Q239.62-2.75 239.14-2.88L239.14-2.88L239.14-2.88Q238.66-3.01 238.21-3.17L238.21-3.17L238.21-3.17Q237.76-3.33 237.22-3.52L237.22-3.52L237.22-3.52Q236.67-3.71 235.71-3.97L235.71-3.97L235.71-4.67L235.71-4.67Q234.05-5.12 233.02-6.21L233.02-6.21L233.02-6.21Q232-7.30 231.42-8.58L231.42-8.58L231.42-8.58Q230.85-9.86 230.66-11.17L230.66-11.17L230.66-11.17Q230.46-12.48 230.46-13.50L230.46-13.50L230.46-13.50Q230.46-14.59 230.50-15.52L230.50-15.52L230.50-15.52Q230.53-16.45 230.53-17.41L230.53-17.41L230.53-17.41Q230.53-18.11 230.50-19.20L230.50-19.20L230.50-19.20Q230.46-20.29 230.40-21.50L230.40-21.50L230.40-21.50Q230.34-22.72 230.30-24L230.30-24L230.30-24Q230.27-25.28 230.27-26.43L230.27-26.43L230.27-26.43Q230.27-27.14 230.30-27.78L230.30-27.78L230.30-27.78Q230.34-28.42 230.40-28.93L230.40-28.93L229.76-28.93L229.76-28.93Q229.70-28.48 229.70-27.90L229.70-27.90L229.70-26.75L229.70-26.75Q229.70-24.90 229.76-23.07L229.76-23.07L229.76-23.07Q229.82-21.25 229.86-19.71L229.86-19.71L229.86-19.71Q229.89-18.18 229.95-17.06L229.95-17.06L229.95-17.06Q230.02-15.94 230.02-15.42L230.02-15.42L230.02-12.86L230.02-12.35L230.02-12.35Q229.82-14.08 229.63-17.28L229.63-17.28L229.63-17.28Q229.44-20.99 229.44-25.47L229.44-25.47L229.44-26.62L229.44-26.62Q229.44-27.33 229.47-27.97L229.47-27.97L229.47-27.97Q229.50-28.61 229.63-28.93L229.63-28.93L227.46-29.06L227.46-29.06Q226.75-29.50 226.05-29.76L226.05-29.76L226.05-29.76Q225.34-30.02 224.77-30.02L224.77-30.02L224.77-31.30L224.77-31.30Q224.77-31.68 224.86-31.97L224.86-31.97L224.86-31.97Q224.96-32.26 225.47-32.26L225.47-32.26L225.47-32.26Q225.60-32.26 226.11-32.13L226.11-32.13L226.11-32.90L226.11-32.90Q225.41-33.28 224.96-33.95L224.96-33.95L224.96-33.95Q224.51-34.62 224.51-35.33L224.51-35.33L224.51-35.33Q224.51-36.99 226.88-36.99L226.88-36.99L226.88-36.99Q227.78-36.99 228.74-36.86L228.74-36.86L228.74-36.86Q229.70-36.74 230.72-36.67L230.72-36.67L230.72-36.67Q230.98-38.08 231.17-39.20L231.17-39.20L231.17-39.20Q231.36-40.32 231.55-41.38L231.55-41.38L231.55-41.38Q231.74-42.43 232-43.49L232-43.49L232-43.49Q232.26-44.54 232.64-45.70L232.64-45.70L232.64-45.70Q233.22-46.98 233.54-48.48L233.54-48.48L233.54-48.48Q233.86-49.98 233.98-51.46L233.98-51.46L235.33-51.39L235.33-51.39Q235.65-51.39 235.87-51.20L235.87-51.20L235.87-51.20Q236.10-51.01 236.10-50.30L236.10-50.30L236.10-50.30Q236.10-49.73 235.90-48.77L235.90-48.77L236.67-48.58L236.67-48.58Q237.18-50.30 237.92-51.39L237.92-51.39L237.92-51.39Q238.66-52.48 239.36-52.48L239.36-52.48L239.36-52.48Q240.45-52.48 240.70-49.73L240.70-49.73L240.70-48.58L240.70-48.58Q240.70-46.91 240.48-45.47L240.48-45.47L240.48-45.47Q240.26-44.03 239.94-42.62L239.94-42.62L239.94-42.62Q239.62-41.22 239.30-39.74L239.30-39.74L239.30-39.74Q238.98-38.27 238.72-36.54L238.72-36.54L238.72-36.54Q240.13-36.35 241.47-36.35L241.47-36.35L241.47-36.35Q242.11-36.35 242.75-36.38L242.75-36.38L242.75-36.38Q243.39-36.42 244.03-36.42L244.03-36.42L244.03-36.42Q244.67-36.42 245.38-36.93L245.38-36.93L245.38-36.93Q246.08-37.44 246.66-37.44L246.66-37.44L246.66-37.44Q247.17-37.44 247.42-37.12L247.42-37.12L247.42-37.12Q247.68-36.80 247.68-36.42L247.68-36.42L247.68-36.42Q246.53-36.10 245.41-35.74L245.41-35.74L245.41-35.74Q244.29-35.39 243.26-35.07L243.26-35.07L243.26-35.07Q244.29-35.20 245.44-35.55L245.44-35.55L245.44-35.55Q246.59-35.90 247.87-36.22L247.87-36.22L247.87-36.22Q247.87-35.90 247.90-35.65L247.90-35.65L247.90-35.65Q247.94-35.39 248.06-35.07L248.06-35.07L248.06-35.07Q248.19-35.07 248.38-35.14L248.38-35.14L248.38-35.14Q248.77-35.26 248.83-35.26L248.83-35.26L248.83-35.26Q249.47-34.94 249.66-34.46L249.66-34.46L249.66-34.46Q249.86-33.98 249.86-33.41L249.86-33.41L249.86-33.41Q249.86-32.96 249.73-32.61L249.73-32.61L249.73-32.61Q249.60-32.26 249.60-32ZM232.64-8.38L232.64-8.38L232.64-8.38Q231.74-10.11 231.68-11.78L231.68-11.78L231.68-11.78Q231.62-13.44 231.49-14.91L231.49-14.91L230.91-24.64L230.72-23.49L230.72-23.49Q230.72-19.20 231.01-15.71L231.01-15.71L231.01-15.71Q231.30-12.22 231.87-10.30L231.87-10.30L231.87-10.30Q231.87-9.73 231.84-9.54L231.84-9.54L231.84-9.54Q231.81-9.34 231.81-9.22L231.81-9.22L231.81-9.22Q231.81-9.09 231.97-8.90L231.97-8.90L231.97-8.90Q232.13-8.70 232.64-8.38ZM236.29-11.84L236.29-11.84L236.29-11.84Q236.16-12.35 236.16-12.93L236.16-12.93L236.16-16.06L236.16-16.06Q236.10-15.42 236.03-14.82L236.03-14.82L236.03-14.82Q235.97-14.21 235.97-13.57L235.97-13.57L235.97-13.57Q235.97-11.90 236.16-11.01L236.16-11.01L236.16-11.01Q236.35-10.24 236.93-9.73L236.93-9.73L236.93-9.73Q236.61-10.11 236.48-10.56L236.48-10.56L236.48-10.56Q236.42-11.07 236.29-11.84ZM230.02-12.35L230.08-11.90L230.02-12.35ZM237.06-9.66L237.06-9.66L237.06-9.66Q236.99-9.73 236.93-9.73L236.93-9.73L236.93-9.73Q236.99-9.73 237.06-9.66ZM278.78-16.77L278.78-16.77L278.78-16.77Q277.06-16.77 276.19-16.83L276.19-16.83L276.19-16.83Q275.33-16.90 274.62-16.90L274.62-16.90L274.62-16.90Q272.70-16.90 271.23-16.70L271.23-16.70L271.23-16.70Q269.76-16.51 268.74-15.94L268.74-15.94L268.74-15.94Q267.71-15.36 267.20-14.27L267.20-14.27L267.20-14.27Q266.69-13.18 266.69-11.39L266.69-11.39L266.69-11.39Q266.69-8.77 267.30-7.52L267.30-7.52L267.30-7.52Q267.90-6.27 269.02-5.73L269.02-5.73L269.02-5.73Q270.14-5.18 271.74-5.06L271.74-5.06L271.74-5.06Q273.34-4.93 275.33-4.48L275.33-4.48L275.33-4.48Q276.48-4.35 277.63-4.32L277.63-4.32L277.63-4.32Q278.78-4.29 279.94-4.29L279.94-4.29L284.54-4.29L284.54-4.29Q281.34-4.48 278.18-4.51L278.18-4.51L278.18-4.51Q275.01-4.54 272.48-5.06L272.48-5.06L272.48-5.06Q269.95-5.57 268.38-6.85L268.38-6.85L268.38-6.85Q266.82-8.13 266.82-10.75L266.82-10.75L266.82-10.75Q266.82-12.86 267.36-13.98L267.36-13.98L267.36-13.98Q267.90-15.10 268.83-15.65L268.83-15.65L268.83-15.65Q269.76-16.19 271.04-16.29L271.04-16.29L271.04-16.29Q272.32-16.38 273.79-16.38L273.79-16.38L273.79-16.38Q275.58-16.38 277.44-16.19L277.44-16.19L277.44-16.19Q275.97-15.74 274.46-15.52L274.46-15.52L274.46-15.52Q272.96-15.30 271.68-15.07L271.68-15.07L271.68-15.07Q270.40-14.85 269.47-14.50L269.47-14.50L269.47-14.50Q268.54-14.14 268.22-13.50L268.22-13.50L268.22-10.62L267.71-10.37L267.71-10.37Q267.97-8.77 268.19-7.97L268.19-7.97L268.19-7.97Q268.42-7.17 269.44-6.75L269.44-6.75L269.44-6.75Q270.46-6.34 272.74-6.08L272.74-6.08L272.74-6.08Q275.01-5.82 279.36-5.25L279.36-5.25L283.97-5.25L283.97-5.25Q285.18-5.25 285.41-5.34L285.41-5.34L285.41-5.34Q285.63-5.44 285.70-5.44L285.70-5.44L285.12-8.90L285.12-8.90Q284.99-10.18 284.80-11.20L284.80-11.20L284.80-11.20Q284.61-12.22 284.29-13.38L284.29-13.38L284.29-13.38Q284.22-13.18 283.90-13.18L283.90-13.18L283.90-13.18Q284.22-12.10 284.45-10.88L284.45-10.88L284.45-10.88Q284.67-9.66 284.83-8.58L284.83-8.58L284.83-8.58Q284.99-7.49 285.09-6.72L285.09-6.72L285.09-6.72Q285.18-5.95 285.31-5.82L285.31-5.82L284.93-5.70L284.93-5.70Q284.80-5.63 284.54-5.63L284.54-5.63L284.16-5.63L284.16-5.63Q283.71-5.63 283.14-5.73L283.14-5.73L283.14-5.73Q282.56-5.82 281.66-5.82L281.66-5.82L279.55-5.82L279.55-5.82Q277.06-5.82 274.94-6.08L274.94-6.08L274.94-6.08Q272.96-6.34 271.49-6.72L271.49-6.72L271.49-6.72Q272.96-6.40 275.07-6.21L275.07-6.21L275.07-6.21Q277.31-5.95 279.23-5.95L279.23-5.95L279.23-5.95Q280.06-5.95 280.99-5.98L280.99-5.98L280.99-5.98Q281.92-6.02 283.01-6.02L283.01-6.02L285.12-6.02L285.12-6.02Q284.93-6.21 284.67-6.21L284.67-6.21L284.54-6.21L284.54-6.21Q284.29-10.62 283.39-14.66L283.39-14.66L283.39-14.66Q282.50-18.69 280.51-21.73L280.51-21.73L280.51-21.73Q278.53-24.77 275.33-26.59L275.33-26.59L275.33-26.59Q272.13-28.42 267.33-28.42L267.33-28.42L267.33-28.42Q265.98-28.42 264.64-28.22L264.64-28.22L264.64-28.22Q263.30-28.03 261.89-27.71L261.89-27.71L261.89-27.71Q262.02-27.84 262.02-27.97L262.02-27.97L262.02-27.97Q262.02-28.29 261.76-28.58L261.76-28.58L261.76-28.58Q261.50-28.86 261.50-29.18L261.50-29.18L261.50-29.18Q261.50-29.57 262.30-29.92L262.30-29.92L262.30-29.92Q263.10-30.27 265.73-30.59L265.73-30.59L265.73-30.59Q265.60-30.72 265.57-30.98L265.57-30.98L265.57-30.98Q265.54-31.23 265.54-31.36L265.54-31.36L265.54-31.36Q262.08-31.36 260.16-31.52L260.16-31.52L260.16-31.52Q258.24-31.68 258.24-32.45L258.24-32.45L258.24-32.45Q258.24-32.77 259.04-33.34L259.04-33.34L259.04-33.34Q259.84-33.92 261.31-34.46L261.31-34.46L261.31-34.46Q262.78-35.01 264.86-35.42L264.86-35.42L264.86-35.42Q266.94-35.84 269.50-35.84L269.50-35.84L269.50-35.84Q274.43-35.84 277.95-34.34L277.95-34.34L277.95-34.34Q281.47-32.83 283.87-30.37L283.87-30.37L283.87-30.37Q286.27-27.90 287.78-24.77L287.78-24.77L287.78-24.77Q289.28-21.63 290.21-18.46L290.21-18.46L290.21-18.46Q291.14-15.30 291.58-12.32L291.58-12.32L291.58-12.32Q292.03-9.34 292.42-7.17L292.42-7.17L292.42-7.17Q292.42-6.78 292.45-6.40L292.45-6.40L292.45-6.40Q292.48-6.02 292.48-5.50L292.48-5.50L292.48-5.50Q292.48-3.65 291.81-2.27L291.81-2.27L291.81-2.27Q291.14-0.90 289.95 0.03L289.95 0.03L289.95 0.03Q288.77 0.96 287.20 1.44L287.20 1.44L287.20 1.44Q285.63 1.92 283.84 1.92L283.84 1.92L283.84 1.92Q282.43 1.92 280.19 1.86L280.19 1.86L280.19 1.86Q277.95 1.79 275.90 1.47L275.90 1.47L275.90 1.47Q274.56 1.15 272.96 0.99L272.96 0.99L272.96 0.99Q271.36 0.83 269.70 0.45L269.70 0.45L269.70 0.45Q268.03 0.06 266.46-0.64L266.46-0.64L266.46-0.64Q264.90-1.34 263.65-2.78L263.65-2.78L263.65-2.78Q262.40-4.22 261.66-6.53L261.66-6.53L261.66-6.53Q260.93-8.83 260.93-12.35L260.93-12.35L260.93-12.35Q260.93-15.68 262.46-17.70L262.46-17.70L262.46-17.70Q264-19.71 266.14-20.83L266.14-20.83L266.14-20.83Q268.29-21.95 270.53-22.30L270.53-22.30L270.53-22.30Q272.77-22.66 274.18-22.66L274.18-22.66L274.18-22.66Q275.97-22.66 276.54-22.40L276.54-22.40L276.54-22.40Q277.12-22.14 277.12-21.89L277.12-21.89L277.12-21.89Q277.12-21.70 277.06-21.57L277.06-21.57L277.06-21.57Q275.46-21.57 272.96-21.44L272.96-21.44L272.96-21.44Q270.46-21.31 268.13-20.61L268.13-20.61L268.13-20.61Q265.79-19.90 264.13-18.46L264.13-18.46L264.13-18.46Q262.46-17.02 262.46-14.40L262.46-14.40L262.46-14.40Q263.04-16.77 264.42-18.14L264.42-18.14L264.42-18.14Q265.79-19.52 267.58-20.19L267.58-20.19L267.58-20.19Q269.38-20.86 271.26-21.02L271.26-21.02L271.26-21.02Q273.15-21.18 274.69-21.18L274.69-21.18L276.86-21.18L276.86-21.18Q276.61-20.93 276.61-20.67L276.61-20.67L276.61-20.67Q276.61-20.42 276.86-20.22L276.86-20.22L279.36-20.22L279.36-20.22Q280.38-20.03 280.83-19.55L280.83-19.55L280.83-19.55Q281.28-19.07 281.28-18.69L281.28-18.69L281.28-18.69Q281.28-18.11 280.70-17.66L280.70-17.66L280.70-17.66Q280.13-17.22 278.78-16.77ZM268.03-1.28L268.03-1.28L268.03-1.28Q269.82-0.58 271.71-0.19L271.71-0.19L271.71-0.19Q273.60 0.19 275.46 0.32L275.46 0.32L275.46 0.32Q277.31 0.51 278.91 0.51L278.91 0.51L278.91 0.51Q277.63 0.38 276.35 0.06L276.35 0.06L276.35 0.06Q275.01-0.26 273.98-0.51L273.98-0.51L273.98-0.51Q272.90-0.77 271.84-0.86L271.84-0.86L271.84-0.86Q270.78-0.96 269.66-1.15L269.66-1.15L269.66-1.15Q268.54-1.34 267.39-1.76L267.39-1.76L267.39-1.76Q266.24-2.18 265.09-3.01L265.09-3.01L265.09-3.01Q266.30-1.92 268.03-1.28ZM268.42-8.13L268.67-8L268.67-8Q268.61-8.06 269.06-7.62L269.06-7.62L269.06-7.62Q269.44-7.23 270.08-7.04L270.08-7.04L270.08-7.04Q269.76-7.17 269.12-7.36L269.12-7.36L269.12-7.36Q268.42-7.62 268.42-8.13L268.42-8.13ZM270.27-7.04L270.27-7.04L270.27-7.04Q270.21-7.04 270.08-7.04L270.08-7.04L270.08-7.04Q270.14-7.04 270.27-7.04ZM300.48-4.10L300.48-4.10L300.48-4.10Q300.48-4.42 300.67-4.86L300.67-4.86L300.67-4.86Q300.86-5.31 300.86-5.82L300.86-5.82L300.86-5.82Q301.06-7.36 301.12-8.03L301.12-8.03L301.12-8.03Q301.18-8.70 301.18-9.22L301.18-9.22L301.18-9.22Q301.18-11.90 301.02-15.01L301.02-15.01L301.02-15.01Q300.86-18.11 300.67-20.99L300.67-20.99L300.67-20.99Q300.67-21.89 300.64-23.10L300.64-23.10L300.64-23.10Q300.61-24.32 300.48-25.02L300.48-25.02L300.48-25.02Q300.67-27.26 300.80-29.44L300.80-29.44L300.80-29.44Q300.93-31.62 300.93-33.86L300.93-33.86L300.93-35.46L300.93-35.46Q300.93-36.29 300.86-37.12L300.86-37.12L300.86-37.12Q301.06-36.93 301.25-36.93L301.25-36.93L301.25-36.93Q301.50-36.93 301.79-37.12L301.79-37.12L301.79-37.12Q302.08-37.31 302.34-37.31L302.34-37.31L302.34-37.31Q302.78-37.31 303.07-36.35L303.07-36.35L303.07-36.35Q303.36-35.39 303.36-32.13L303.36-32.13L303.94-32.13L303.94-32.13Q304.26-35.71 304.93-37.82L304.93-37.82L304.93-37.82Q305.60-39.94 306.30-39.94L306.30-39.94L306.30-39.94Q306.62-39.94 307.33-38.56L307.33-38.56L307.33-38.56Q308.03-37.18 308.03-34.24L308.03-34.24L308.74-35.39L308.74-35.39Q309.44-36.22 310.30-37.12L310.30-37.12L310.30-37.12Q311.17-38.02 312.26-38.72L312.26-38.72L312.26-38.72Q313.34-39.42 314.69-39.90L314.69-39.90L314.69-39.90Q316.03-40.38 317.76-40.38L317.76-40.38L317.76-40.38Q321.09-40.38 323.55-38.88L323.55-38.88L323.55-38.88Q326.02-37.38 327.68-34.98L327.68-34.98L327.68-34.98Q329.34-32.58 330.40-29.54L330.40-29.54L330.40-29.54Q331.46-26.50 332.03-23.39L332.03-23.39L332.03-23.39Q332.61-20.29 332.80-17.41L332.80-17.41L332.80-17.41Q332.99-14.53 332.99-12.48L332.99-12.48L332.99-12.48Q332.99-10.62 332.77-10.27L332.77-10.27L332.77-10.27Q332.54-9.92 331.97-9.86L331.97-9.86L331.97-9.86Q331.84-14.78 331.33-19.90L331.33-19.90L331.33-19.90Q330.82-25.02 328.90-29.82L328.90-29.82L328.90-29.82Q330.62-24.77 331.10-19.87L331.10-19.87L331.10-19.87Q331.58-14.98 331.58-10.05L331.58-10.05L331.58-10.05Q331.20-10.24 330.88-10.24L330.88-10.24L330.88-10.24Q330.62-10.24 330.43-10.05L330.43-10.05L330.43-10.05Q330.43-9.54 330.50-8.96L330.50-8.96L330.50-8.96Q330.56-8.45 330.59-7.94L330.59-7.94L330.59-7.94Q330.62-7.42 330.62-6.98L330.62-6.98L330.62-6.98Q330.24-5.50 329.86-4.86L329.86-4.86L329.86-4.86Q329.47-4.22 329.15-4.22L329.15-4.22L329.15-4.22Q328.77-4.22 328.51-4.58L328.51-4.58L328.51-4.58Q328.26-4.93 328.03-5.44L328.03-5.44L328.03-5.44Q327.81-5.95 327.58-6.56L327.58-6.56L327.58-6.56Q327.36-7.17 326.98-7.74L326.98-7.74L326.98-7.74Q327.10-8.83 327.17-9.50L327.17-9.50L327.17-9.50Q327.23-10.18 327.23-10.62L327.23-10.62L327.23-10.62Q327.23-12.35 327.17-14.78L327.17-14.78L327.17-14.78Q327.10-17.22 326.82-19.87L326.82-19.87L326.82-19.87Q326.53-22.53 325.92-25.18L325.92-25.18L325.92-25.18Q325.31-27.84 324.26-29.92L324.26-29.92L324.26-29.92Q323.20-32 321.60-33.31L321.60-33.31L321.60-33.31Q320-34.62 317.76-34.62L317.76-34.62L317.76-34.62Q316.22-34.62 315.04-33.60L315.04-33.60L315.04-33.60Q313.86-32.58 312.99-30.98L312.99-30.98L312.99-30.98Q312.13-29.38 311.49-27.49L311.49-27.49L311.49-27.49Q310.85-25.60 310.46-23.87L310.46-23.87L310.46-23.87Q311.04-25.66 311.65-27.52L311.65-27.52L311.65-27.52Q312.26-29.38 313.12-30.91L313.12-30.91L313.12-30.91Q313.98-32.45 315.14-33.44L315.14-33.44L315.14-33.44Q316.29-34.43 317.82-34.43L317.82-34.43L317.82-34.43Q319.81-34.43 321.25-33.34L321.25-33.34L321.25-33.34Q322.69-32.26 323.68-30.53L323.68-30.53L323.68-30.53Q324.67-28.80 325.28-26.59L325.28-26.59L325.28-26.59Q325.89-24.38 326.21-22.11L326.21-22.11L326.21-22.11Q326.53-19.84 326.62-17.70L326.62-17.70L326.62-17.70Q326.72-15.55 326.72-14.02L326.72-14.02L326.72-14.02Q326.72-12.80 326.69-11.58L326.69-11.58L326.69-11.58Q326.66-10.37 326.59-9.09L326.59-9.09L326.59-9.09Q326.02-11.52 325.73-14.18L325.73-14.18L325.73-14.18Q325.44-16.83 325.12-19.42L325.12-19.42L325.12-19.42Q324.80-22.02 324.32-24.42L324.32-24.42L324.32-24.42Q323.84-26.82 322.94-28.86L322.94-28.86L323.39-29.50L323.39-29.50Q322.75-30.98 321.95-31.78L321.95-31.78L321.95-31.78Q321.15-32.58 320.38-32.96L320.38-32.96L320.38-32.96Q319.62-33.34 318.98-33.41L318.98-33.41L318.98-33.41Q318.34-33.47 318.14-33.47L318.14-33.47L318.14-33.47Q316.54-33.47 315.30-32.32L315.30-32.32L315.30-32.32Q314.05-31.17 313.12-29.22L313.12-29.22L313.12-29.22Q312.19-27.26 311.49-24.70L311.49-24.70L311.49-24.70Q310.78-22.14 310.27-19.33L310.27-19.33L310.27-19.33Q309.76-16.51 309.38-13.66L309.38-13.66L309.38-13.66Q308.99-10.82 308.74-8.32L308.74-8.32L309.31-8.32L309.31-8.32Q309.63-10.50 309.98-13.12L309.98-13.12L309.98-13.12Q310.34-15.74 310.75-18.46L310.75-18.46L310.75-18.46Q311.17-21.18 311.74-23.74L311.74-23.74L311.74-23.74Q312.32-26.30 313.12-28.35L313.12-28.35L313.12-28.35Q313.92-30.40 315.01-31.68L315.01-31.68L315.01-31.68Q316.03-32.90 317.50-33.09L317.50-33.09L317.50-33.09Q316.10-32.77 315.14-31.30L315.14-31.30L315.14-31.30Q314.11-29.76 313.34-27.52L313.34-27.52L313.34-27.52Q312.58-25.28 311.97-22.62L311.97-22.62L311.97-22.62Q311.36-19.97 310.85-17.54L310.85-17.54L309.57-8.19L309.57-8.19Q309.31-7.30 309.18-6.59L309.18-6.59L308.93-5.25L308.93-5.25Q308.80-4.61 308.67-3.87L308.67-3.87L308.67-3.87Q308.54-3.14 308.35-2.18L308.35-2.18L308.16-1.41L307.78-1.41L301.31-3.58L301.31-3.58Q300.99-3.65 300.83-3.78L300.83-3.78L300.83-3.78Q300.67-3.90 300.48-4.10ZM311.62-36.93L311.62-36.93L311.62-36.93Q310.34-35.84 309.60-34.59L309.60-34.59L309.60-34.59Q308.86-33.34 308.22-32.06L308.22-32.06L308.22-32L308.22-32Q309.12-33.86 310.72-35.78L310.72-35.78L310.72-35.78Q312.26-37.57 314.82-38.46L314.82-38.46L314.82-38.46Q313.98-38.21 313.22-37.95L313.22-37.95L313.22-37.95Q312.32-37.63 311.62-36.93ZM319.30-39.04L319.30-39.04L319.30-39.04Q318.98-39.10 318.40-39.10L318.40-39.10L318.40-39.10Q320.45-38.59 322.24-37.98L322.24-37.98L322.24-37.98Q324.03-37.38 325.63-35.58L325.63-35.58L325.63-35.58Q324.54-37.06 322.78-37.89L322.78-37.89L322.78-37.89Q321.02-38.72 319.30-39.04ZM321.66-31.17L321.02-31.74L321.02-31.74Q320.51-32.13 319.84-32.35L319.84-32.35L319.84-32.35Q319.17-32.58 318.21-32.96L318.21-32.96L318.14-33.09L318.14-33.09Q319.23-33.02 320.06-32.61L320.06-32.61L320.06-32.61Q320.90-32.19 321.66-31.17L321.66-31.17ZM325.76-35.46L325.76-35.46L325.76-35.46Q326.66-34.37 327.42-32.96L327.42-32.96L327.42-32.96Q328.19-31.55 328.77-30.46L328.77-30.46L328.77-30.46Q328.13-31.94 327.55-33.15L327.55-33.15L327.55-33.15Q326.98-34.37 325.76-35.46ZM373.38-48.06L373.18-46.72L373.18-46.72Q373.31-44.86 373.38-43.10L373.38-43.10L373.38-43.10Q373.44-41.34 373.44-39.49L373.44-39.49L373.44-39.49Q373.44-35.65 373.22-31.78L373.22-31.78L373.22-31.78Q372.99-27.90 372.67-23.94L372.67-23.94L372.67-23.94Q372.35-19.97 372.03-15.81L372.03-15.81L372.03-15.81Q371.71-11.65 371.46-7.17L371.46-7.17L371.46-7.17Q371.46-6.46 371.42-5.73L371.42-5.73L371.42-5.73Q371.39-4.99 371.26-4.10L371.26-4.10L371.26-3.33L371.26-3.33Q371.26-3.14 371.14-2.82L371.14-2.82L371.14-2.82Q371.01-2.50 370.88-2.37L370.88-2.37L370.88-2.37Q370.05-1.41 369.38-0.93L369.38-0.93L369.38-0.93Q368.70-0.45 368.13-0.22L368.13-0.22L368.13-0.22Q367.55 0 367.04 0.03L367.04 0.03L367.04 0.03Q366.53 0.06 366.02 0.13L366.02 0.13L366.40 0.13L366.40 0.13Q366.59 0.13 367.14 0.06L367.14 0.06L367.14 0.06Q367.68 0 368.35-0.16L368.35-0.16L368.35-0.16Q369.02-0.32 369.63-0.61L369.63-0.61L369.63-0.61Q370.24-0.90 370.50-1.41L370.50-1.41L371.07-2.56L371.07-2.56Q371.46-3.26 371.55-4.06L371.55-4.06L371.55-4.06Q371.65-4.86 371.68-5.66L371.68-5.66L371.68-5.66Q371.71-6.46 371.71-7.23L371.71-7.23L371.71-7.23Q371.71-8 371.84-8.70L371.84-8.70L371.84-8.70Q372.03-12.74 372.38-16.77L372.38-16.77L372.38-16.77Q372.74-20.80 373.06-24.90L373.06-24.90L373.06-24.90Q373.38-28.99 373.63-33.18L373.63-33.18L373.63-33.18Q373.89-37.38 373.89-41.73L373.89-41.73L373.89-41.73Q373.89-43.07 373.86-44.32L373.86-44.32L373.86-44.32Q373.82-45.57 373.76-46.72L373.76-46.72L373.76-46.72Q373.95-46.46 374.18-45.92L374.18-45.92L374.18-45.92Q374.40-45.38 374.53-44.22L374.53-44.22L374.53-44.22Q374.85-43.52 374.91-42.69L374.91-42.69L374.91-42.69Q374.98-41.86 375.10-40.96L375.10-40.96L375.10-40.96Q375.10-36.61 374.78-32.54L374.78-32.54L374.78-32.54Q374.46-28.48 374.14-24.45L374.14-24.45L373.57-24.26L372.99-13.31L372.99-13.31Q372.99-8.70 372.58-5.73L372.58-5.73L372.58-5.73Q372.16-2.75 371.84-1.79L371.84-1.79L371.84-1.60L371.84-1.60Q370.88-0.64 370.21-0.16L370.21-0.16L370.21-0.16Q369.54 0.32 368.96 0.58L368.96 0.58L368.96 0.58Q368.38 0.83 367.90 0.86L367.90 0.86L367.90 0.86Q367.42 0.90 366.91 0.90L366.91 0.90L362.82 0.90L362.82 0.90Q361.09 0.70 359.10 0.74L359.10 0.74L359.10 0.74Q357.12 0.77 354.94 0.32L354.94 0.32L354.94 0.32Q352.77-0.13 350.50-1.54L350.50-1.54L350.50-1.54Q348.22-2.94 345.92-6.02L345.92-6.02L345.92-6.02Q345.92-5.89 345.86-5.82L345.86-5.82L345.86-5.82Q345.79-5.76 345.73-5.63L345.73-5.63L345.73-5.63Q347.84-2.75 350.82-0.90L350.82-0.90L350.82-0.90Q353.79 0.96 357.25 1.28L357.25 1.28L362.62 1.28L362.62 1.28Q363.39 1.41 364.19 1.44L364.19 1.44L364.19 1.44Q364.99 1.47 365.95 1.47L365.95 1.47L365.95 1.47Q366.91 1.47 368.48 1.22L368.48 1.22L368.48 1.22Q370.05 0.96 371.46-0.45L371.46-0.45L371.46-0.45Q371.71-0.77 371.81-0.93L371.81-0.93L371.81-0.93Q371.90-1.09 372.03-1.41L372.03-1.41L372.22-1.79L372.22-1.79Q372.54-2.37 372.70-2.98L372.70-2.98L372.70-2.98Q372.86-3.58 372.99-4.16L372.99-4.16L372.99-4.16Q372.99-3.46 372.90-2.94L372.90-2.94L372.90-2.94Q372.80-2.43 372.42-1.41L372.42-1.41L372.22-1.22L371.46-0.06L371.46-0.06Q370.88 0.51 370.18 0.83L370.18 0.83L370.18 0.83Q369.47 1.15 368.83 1.31L368.83 1.31L368.83 1.31Q368.19 1.47 367.65 1.54L367.65 1.54L367.65 1.54Q367.10 1.60 366.85 1.66L366.85 1.66L364.74 1.66L364.74 1.66Q363.90 1.66 363.36 1.63L363.36 1.63L363.36 1.63Q362.82 1.60 362.53 1.57L362.53 1.57L362.53 1.57Q362.24 1.54 362.05 1.47L362.05 1.47L360.13 1.47L360.13 1.47Q359.55 1.47 358.98 1.50L358.98 1.50L358.98 1.50Q358.40 1.54 357.76 1.54L357.76 1.54L357.76 1.54Q354.75 1.54 351.90 0.10L351.90 0.10L351.90 0.10Q349.06-1.34 346.66-3.97L346.66-3.97L346.66-3.97Q344.26-6.59 342.40-10.18L342.40-10.18L342.40-10.18Q340.54-13.76 339.58-18.11L339.58-18.11L339.58-18.11Q339.58-18.82 339.49-19.46L339.49-19.46L339.49-19.46Q339.39-20.10 339.39-20.80L339.39-20.80L339.39-20.80Q339.39-23.17 340.13-25.63L340.13-25.63L340.13-25.63Q340.86-28.10 342.78-30.08L342.78-30.08L342.78-30.08Q344.70-32.06 347.97-33.31L347.97-33.31L347.97-33.31Q351.23-34.56 356.22-34.56L356.22-34.56L356.22-34.56Q358.53-34.56 360.70-34.46L360.70-34.46L360.70-34.46Q362.88-34.37 365.12-34.24L365.12-34.24L365.12-34.24Q364.86-34.05 364.86-33.79L364.86-33.79L364.86-33.79Q364.86-33.47 364.99-33.25L364.99-33.25L364.99-33.25Q365.12-33.02 365.12-32.77L365.12-32.77L365.12-32.77Q365.12-32.45 364.64-32.22L364.64-32.22L364.64-32.22Q364.16-32 362.62-32L362.62-32L362.62-32Q362.11-32 361.44-32.03L361.44-32.03L361.44-32.03Q360.77-32.06 359.94-32.13L359.94-32.13L359.94-31.55L359.94-31.55Q363.01-31.10 364.90-30.37L364.90-30.37L364.90-30.37Q366.78-29.63 367.23-29.06L367.23-29.06L367.36-28.93L367.62-31.74L367.62-31.74Q367.81-33.47 367.81-35.65L367.81-35.65L367.81-35.65Q367.81-37.89 367.68-40.06L367.68-40.06L367.68-40.06Q367.55-42.24 367.55-43.46L367.55-43.46L367.55-43.46Q367.55-44.99 367.74-45.50L367.74-45.50L367.74-45.50Q367.94-46.02 368.26-46.02L368.26-46.02L368.26-46.02Q368.51-46.02 368.67-44.93L368.67-44.93L368.67-44.93Q368.83-43.84 368.93-42.46L368.93-42.46L368.93-42.46Q369.02-41.09 369.02-39.74L369.02-39.74L369.02-37.89L369.02-37.89Q369.02-36.03 368.96-34.14L368.96-34.14L368.96-34.14Q368.90-32.26 368.77-30.40L368.77-30.40L368.77-30.40Q368.96-32.83 369.09-35.17L369.09-35.17L369.09-35.17Q369.22-37.50 369.22-39.94L369.22-39.94L369.22-39.94Q369.22-41.41 369.15-42.85L369.15-42.85L369.15-42.85Q369.09-44.29 368.96-45.76L368.96-45.76L368.96-45.76Q369.34-45.38 369.54-45.38L369.54-45.38L369.54-45.38Q369.79-45.38 369.92-45.76L369.92-45.76L369.92-45.76Q369.86-46.27 369.79-46.85L369.79-46.85L369.79-46.85Q369.73-47.36 369.73-47.87L369.73-47.87L369.73-48.83L369.73-48.83Q370.05-49.60 370.56-50.02L370.56-50.02L370.56-50.02Q371.07-50.43 371.46-50.43L371.46-50.43L371.46-50.43Q372.54-50.43 373.38-48.06L373.38-48.06ZM362.82-27.52L362.82-27.52L362.82-27.52Q360.70-27.39 358.05-27.26L358.05-27.26L358.05-27.26Q355.39-27.14 353.02-26.59L353.02-26.59L353.02-26.59Q350.66-26.05 348.96-24.96L348.96-24.96L348.96-24.96Q347.26-23.87 347.07-21.95L347.07-21.95L347.07-21.95Q347.07-19.84 347.97-17.22L347.97-17.22L347.97-17.22Q348.86-14.59 350.34-12.26L350.34-12.26L350.34-12.26Q351.81-9.92 353.70-8.26L353.70-8.26L353.70-8.26Q355.58-6.59 357.63-6.40L357.63-6.40L361.28-6.40L361.28-6.40Q361.60-6.40 361.76-6.37L361.76-6.37L361.76-6.37Q361.92-6.34 362.24-6.21L362.24-6.21L363.78-6.21L363.78-6.21Q364.74-6.02 365.70-6.02L365.70-6.02L365.70-6.02Q365.70-11.39 366.18-17.06L366.18-17.06L366.18-17.06Q366.66-22.72 367.23-28.16L367.23-28.16L367.23-28.16Q366.40-27.52 362.82-27.52ZM367.42-14.27L367.42-14.27L367.42-14.27Q367.42-13.57 367.33-12.83L367.33-12.83L367.33-12.83Q367.23-12.10 367.23-11.20L367.23-11.20L367.23-11.20Q367.94-14.78 368.06-18.75L368.06-18.75L368.06-18.75Q368.19-22.72 368.38-26.37L368.38-26.37L368.38-26.37Q368.06-23.30 367.90-20.32L367.90-20.32L367.90-20.32Q367.74-17.34 367.42-14.27ZM372.99-7.36L372.99-7.36L372.99-7.36Q372.99-8.06 373.06-8.80L373.06-8.80L373.06-8.80Q373.12-9.54 373.25-10.37L373.25-10.37L373.25-10.37Q373.18-8.45 373.18-6.75L373.18-6.75L373.18-6.75Q373.18-5.06 372.99-4.35L372.99-4.35L372.99-4.35Q372.99-4.67 373.02-4.96L373.02-4.96L373.02-4.96Q373.06-5.25 373.06-5.57L373.06-5.57L373.06-5.57Q373.06-6.08 373.02-6.53L373.02-6.53L373.02-6.53Q372.99-6.98 372.99-7.36ZM373.82-20.03L373.95-17.73L373.95-17.73Q373.82-17.41 373.76-16.99L373.76-16.99L373.76-16.99Q373.70-16.58 373.57-16.13L373.57-16.13L373.82-20.03ZM373.50-15.49L373.38-12.74L373.38-12.74Q373.38-12.16 373.34-11.58L373.34-11.58L373.34-11.58Q373.31-11.01 373.25-10.50L373.25-10.50L373.25-10.50Q373.25-11.78 373.31-13.09L373.31-13.09L373.31-13.09Q373.38-14.40 373.50-15.49L373.50-15.49ZM367.04-10.05L367.04-8.77L367.04-8.77Q367.10-9.02 367.10-9.28L367.10-9.28L367.10-9.28Q367.10-9.54 367.23-9.86L367.23-9.86L367.23-10.56L367.23-10.56Q367.17-10.43 367.17-10.34L367.17-10.34L367.17-10.34Q367.17-10.24 367.10-10.18L367.10-10.18L367.04-10.05ZM366.78-5.82L366.85-5.70L366.85-5.70Q366.91-6.27 366.98-6.88L366.98-6.88L366.98-6.88Q367.04-7.49 367.04-8.13L367.04-8.13L367.04-8.32L366.78-5.82Z" fill="#ffffff"></path></g></g><style>text {
  font-size: 64px;
  font-family: Arial Black;
  dominant-baseline: central;
  text-anchor: middle;
}</style></svg>